# Blender v2.93.5 OBJ File: ''
# www.blender.org
mtllib robotarms.mtl
o arms_Cube.001
v -1.673094 -0.262072 0.002034
v -1.673094 0.045599 0.305636
v -1.673094 0.041530 -0.305636
v -1.673094 0.349200 -0.002034
v -1.495611 -0.262072 0.002034
v -1.495611 0.045599 0.305636
v -1.495611 0.041530 -0.305636
v -1.495611 0.349200 -0.002034
v -1.673094 -1.509688 1.266371
v -1.673094 -1.202017 1.569973
v -1.495611 -1.202017 1.569973
v -1.495611 -1.509688 1.266371
v -1.673094 -1.811340 1.572067
v -1.673094 -1.503670 1.875668
v -1.507369 -1.503670 1.875668
v -1.507369 -1.811340 1.572067
v 1.463531 -1.202017 1.569973
v 1.463531 -1.509688 1.266371
v 1.463531 -1.503670 1.875668
v 1.463531 -1.811340 1.572067
v 1.659501 -1.202017 1.569973
v 1.659501 -1.509688 1.266371
v 1.659501 -1.503670 1.875668
v 1.659501 -1.811340 1.572067
v 1.463531 0.074732 0.276111
v 1.463531 -0.232938 -0.027490
v 1.659501 0.074732 0.276111
v 1.659501 -0.232938 -0.027490
v 1.463531 0.377422 -0.030635
v 1.463531 0.069751 -0.334236
v 1.659501 0.377422 -0.030635
v 1.659501 0.069751 -0.334236
v -1.507369 -1.502858 1.997637
v -1.507369 -1.810528 1.694036
v -1.495611 -1.201206 1.691942
v 1.463531 -1.502858 1.997637
v 1.463531 -1.810528 1.694036
v 1.463531 -1.201206 1.691942
v -1.495611 -1.202888 1.439168
v -1.495611 -1.510558 1.135567
v -1.507369 -1.812211 1.441262
v 1.463531 -1.202888 1.439168
v 1.463531 -1.510558 1.135567
v 1.463531 -1.812211 1.441262
v -1.507369 -1.878262 1.572513
v 1.463531 -1.878262 1.572513
v -1.507369 -1.877450 1.694482
v 1.463531 -1.877450 1.694482
v -1.507369 -1.879133 1.441708
v 1.463531 -1.879133 1.441708
v -1.495611 -1.131984 1.569506
v -1.495611 -1.131172 1.691475
v 1.463531 -1.131984 1.569506
v 1.463531 -1.132854 1.438702
v 1.463531 -1.131172 1.691475
v -1.495611 -1.132854 1.438702
v 1.433911 0.073497 0.124756
v 1.433911 -0.081579 -0.028270
v 1.433911 0.226063 -0.029855
v 1.433911 0.070987 -0.182880
v 1.125107 0.073497 0.124756
v 1.125107 -0.081579 -0.028270
v 1.125107 0.226063 -0.029855
v 1.125107 0.070987 -0.182880
v -1.453919 0.203349 -0.001064
v -1.453919 0.042500 -0.159785
v -1.453919 -0.116221 0.001064
v -1.453919 0.044628 0.159785
v -1.164233 0.203349 -0.001064
v -1.164233 0.042500 -0.159785
v -1.164233 -0.116221 0.001064
v -1.164233 0.044628 0.159785
vt 0.492321 0.464315
vt 0.583311 0.464314
vt 0.583311 0.555304
vt 0.492321 0.555305
vt 0.711400 0.555305
vt 0.711400 0.646294
vt 0.674039 0.646294
vt 0.674039 0.555305
vt 0.765289 0.000000
vt 0.765289 0.090990
vt 0.743579 0.069279
vt 0.743579 0.021710
vt 0.492321 0.090406
vt 0.583310 0.090405
vt 0.885156 0.555306
vt 0.847795 0.555306
vt 0.847795 0.464317
vt 0.885156 0.464317
vt 0.922517 0.555306
vt 0.885156 0.555306
vt 0.885156 0.464317
vt 0.922517 0.464317
vt 0.885156 0.090405
vt 0.847795 0.090405
vt 0.850270 0.000000
vt 0.885156 0.000000
vt 0.885156 0.090405
vt 0.922517 0.090405
vt 0.674300 0.090990
vt 0.765289 0.464901
vt 0.674300 0.464901
vt 0.034886 0.625390
vt 0.034886 0.716379
vt 0.000000 0.716379
vt 0.000000 0.625390
vt 0.492321 0.000001
vt 0.583311 0.000000
vt 0.885156 0.000000
vt 0.920042 0.000000
vt 0.430951 0.659475
vt 0.340982 0.650598
vt 0.360832 0.634313
vt 0.450801 0.643191
vt 0.765289 0.090405
vt 0.765289 0.000000
vt 0.806541 0.000000
vt 0.806541 0.090405
vt 0.990038 0.000000
vt 0.990038 0.622914
vt 0.979614 0.622914
vt 0.979614 0.000000
vt 0.604002 0.583661
vt 0.582713 0.566196
vt 0.591648 0.555305
vt 0.612937 0.572770
vt 0.331632 0.639200
vt 0.351482 0.622915
vt 0.492322 0.090405
vt 0.401332 0.090405
vt 0.401332 0.000000
vt 0.492322 0.000000
vt 0.632787 0.646294
vt 0.632787 0.555305
vt 0.674039 0.555305
vt 0.674039 0.646294
vt 0.847794 0.000000
vt 0.847794 0.090405
vt 0.806541 0.090405
vt 0.806541 0.000000
vt 0.492322 0.473048
vt 0.401332 0.473048
vt 0.583311 0.090717
vt 0.583311 0.000001
vt 0.605895 0.022517
vt 0.605895 0.068241
vt 0.847794 0.473048
vt 0.806541 0.473048
vt 0.806541 0.473048
vt 0.765289 0.473048
vt 0.674300 0.473357
vt 0.583311 0.473358
vt 0.674300 0.090716
vt 0.492321 0.563765
vt 0.492321 0.654754
vt 0.451069 0.654754
vt 0.451069 0.563765
vt 0.847794 0.563765
vt 0.806541 0.563765
vt 0.492322 0.563765
vt 0.401332 0.563765
vt 0.806541 0.563765
vt 0.765289 0.563765
vt 0.028580 0.002475
vt 0.118986 0.000000
vt 0.118986 0.625390
vt 0.028580 0.625390
vt 0.219353 0.000000
vt 0.310342 0.000000
vt 0.310342 0.625390
vt 0.219353 0.625390
vt 0.422015 0.750025
vt 0.441866 0.733740
vt 0.522961 0.683096
vt 0.612937 0.674210
vt 0.632787 0.690495
vt 0.542811 0.699381
vt 0.623852 0.599946
vt 0.632787 0.589055
vt 0.401332 0.622914
vt 0.310342 0.622914
vt 0.310342 0.000000
vt 0.401332 0.000000
vt 0.128947 0.000000
vt 0.219354 0.002475
vt 0.219354 0.625390
vt 0.128947 0.625390
vt 0.332047 0.741147
vt 0.400727 0.767490
vt 0.310759 0.758612
vt 0.319694 0.668062
vt 0.514026 0.592547
vt 0.501673 0.665631
vt 0.492738 0.575082
vt 0.922517 0.625390
vt 0.922517 0.000000
vt 0.941988 0.000000
vt 0.941988 0.625390
vt 0.961458 0.625390
vt 0.961458 0.000000
vt 0.979613 0.000000
vt 0.979613 0.625390
vt 0.450801 0.744632
vt 0.430951 0.760917
vt 0.409662 0.778381
vt 0.990039 0.625390
vt 0.990039 0.000000
vt 1.000000 0.000000
vt 1.000000 0.625390
vt 0.118986 0.625390
vt 0.118986 0.000000
vt 0.000000 0.625390
vt 0.000000 0.002475
vt 0.018155 0.002475
vt 0.018155 0.625390
vt 0.941988 0.622914
vt 0.941988 0.000000
vt 0.961458 0.000000
vt 0.961458 0.622914
vt 0.533461 0.710779
vt 0.513611 0.694494
vt 0.492322 0.677029
vt 0.310343 0.656664
vt 0.219353 0.625390
vt 0.265077 0.625390
vt 0.265077 0.690395
vt 0.219353 0.690395
vt 0.674300 0.000000
vt 0.651756 0.022516
vt 0.651756 0.068240
vt 0.726079 0.646294
vt 0.726080 0.692156
vt 0.680356 0.692156
vt 0.680355 0.646294
vt 0.629173 0.473357
vt 0.675034 0.473357
vt 0.675034 0.538363
vt 0.629173 0.538363
vt 0.080610 0.690395
vt 0.034886 0.690395
vt 0.034886 0.625390
vt 0.080610 0.625390
vt 0.629173 0.538363
vt 0.583311 0.538363
vt 0.583311 0.473358
vt 0.629173 0.473358
vt 0.124215 0.625390
vt 0.171784 0.625390
vt 0.171784 0.686370
vt 0.124215 0.686370
vt 0.674300 0.000000
vt 0.696010 0.021710
vt 0.696010 0.069279
vt 0.448901 0.563765
vt 0.448901 0.611334
vt 0.401332 0.611334
vt 0.401332 0.563765
vt 0.722603 0.534338
vt 0.675034 0.534338
vt 0.675034 0.473358
vt 0.722603 0.473358
vt 0.219353 0.686370
vt 0.171784 0.686370
vt 0.171784 0.625390
vt 0.219353 0.625390
vt 0.680356 0.707275
vt 0.632787 0.707275
vt 0.632787 0.646295
vt 0.680356 0.646295
vn -1.0000 -0.0000 0.0000
vn 0.0000 0.7024 -0.7118
vn 0.9271 0.2668 0.2632
vn 0.0000 -0.7118 -0.7024
vn 0.0000 0.7118 0.7024
vn 1.0000 -0.0000 0.0000
vn 0.0000 -0.7024 0.7118
vn 0.0000 -0.0067 -1.0000
vn -0.9639 0.1896 0.1871
vn -0.9993 0.0387 -0.0003
vn 0.0000 -1.0000 0.0067
vn 0.0000 0.0067 1.0000
vn 0.0000 1.0000 -0.0067
vn -0.9637 0.1876 -0.1901
vn -0.9639 -0.1896 -0.1871
vn -0.9637 -0.1876 0.1901
vn 0.9271 0.2632 -0.2668
vn 0.9271 -0.2632 0.2668
vn 0.9271 -0.2668 -0.2632
usemtl None
s off
f 1/1/1 2/2/1 4/3/1 3/4/1
f 3/5/2 4/6/2 8/7/2 7/8/2
f 8/9/3 6/10/3 68/11/3 65/12/3
f 2/2/1 1/1/1 9/13/1 10/14/1
f 3/15/4 7/16/4 5/17/4 1/18/4
f 8/19/5 4/20/5 2/21/5 6/22/5
f 9/23/4 12/24/4 16/25/4 13/26/4
f 1/18/4 5/17/4 12/24/4 9/23/4
f 6/22/5 2/21/5 10/27/5 11/28/5
f 5/29/6 6/10/6 11/30/6 12/31/6
f 16/32/7 15/33/7 14/34/7 13/35/7
f 10/14/1 9/13/1 13/36/1 14/37/1
f 11/28/5 10/27/5 14/38/5 15/39/5
f 19/40/6 17/41/6 38/42/6 36/43/6
f 17/44/5 19/45/5 23/46/5 21/47/5
f 42/48/8 39/49/8 56/50/8 54/51/8
f 16/52/1 41/53/1 49/54/1 45/55/1
f 38/42/6 17/41/6 53/56/6 55/57/6
f 22/58/6 21/59/6 23/60/6 24/61/6
f 19/62/7 20/63/7 24/64/7 23/65/7
f 20/66/4 18/67/4 22/68/4 24/69/4
f 21/59/6 22/58/6 28/70/6 27/71/6
f 25/72/9 29/73/9 59/74/9 57/75/9
f 22/68/4 18/67/4 26/76/4 28/77/4
f 17/44/5 21/47/5 27/78/5 25/79/5
f 18/80/1 17/81/1 25/72/1 26/82/1
f 30/83/2 29/84/2 31/85/2 32/86/2
f 28/77/4 26/76/4 30/87/4 32/88/4
f 27/71/6 28/70/6 32/89/6 31/90/6
f 25/79/5 27/78/5 31/91/5 29/92/5
f 35/93/5 33/94/5 36/95/5 38/96/5
f 33/97/7 34/98/7 37/99/7 36/100/7
f 20/101/6 19/40/6 36/43/6 37/102/6
f 11/103/10 15/104/10 33/105/10 35/106/10
f 34/107/1 16/52/1 45/55/1 47/108/1
f 15/104/1 16/52/1 34/107/1 33/105/1
f 40/109/2 39/110/2 42/111/2 43/112/2
f 41/113/4 40/114/4 43/115/4 44/116/4
f 18/117/6 20/101/6 44/118/6 43/119/6
f 17/41/6 18/117/6 43/119/6 42/120/6
f 12/121/1 11/103/1 39/122/1 40/123/1
f 16/52/10 12/121/10 40/123/10 41/53/10
f 46/124/11 45/125/11 49/126/11 50/127/11
f 45/128/11 46/129/11 48/130/11 47/131/11
f 20/101/6 37/102/6 48/132/6 46/133/6
f 44/118/6 20/101/6 46/133/6 50/134/6
f 37/135/12 34/136/12 47/137/12 48/138/12
f 41/113/8 44/116/8 50/139/8 49/140/8
f 53/141/13 51/142/13 52/143/13 55/144/13
f 51/145/13 53/146/13 54/147/13 56/148/13
f 11/103/1 35/106/1 52/149/1 51/150/1
f 35/93/12 38/96/12 55/144/12 52/143/12
f 39/122/1 11/103/1 51/150/1 56/151/1
f 17/41/6 42/120/6 54/152/6 53/56/6
f 60/153/4 58/154/4 62/155/4 64/156/4
f 29/73/14 30/157/14 60/158/14 59/74/14
f 30/157/15 26/82/15 58/159/15 60/158/15
f 26/82/16 25/72/16 57/75/16 58/159/16
f 62/160/1 61/161/1 63/162/1 64/163/1
f 59/164/2 60/165/2 64/166/2 63/167/2
f 57/168/5 59/169/5 63/170/5 61/171/5
f 58/172/7 57/173/7 61/174/7 62/175/7
f 68/176/7 67/177/7 71/178/7 72/179/7
f 7/180/17 8/9/17 65/12/17 66/181/17
f 6/10/18 5/29/18 67/182/18 68/11/18
f 5/29/19 7/180/19 66/181/19 67/182/19
f 70/183/6 69/184/6 72/185/6 71/186/6
f 67/187/4 66/188/4 70/189/4 71/190/4
f 65/191/5 68/192/5 72/193/5 69/194/5
f 66/195/2 65/196/2 69/197/2 70/198/2
